<?xml version="1.0" encoding="UTF-8" standalone="no"?>
<!-- Generated by IcoMoon.io -->

<svg
   xmlns:dc="http://purl.org/dc/elements/1.1/"
   xmlns:cc="http://creativecommons.org/ns#"
   xmlns:rdf="http://www.w3.org/1999/02/22-rdf-syntax-ns#"
   xmlns:svg="http://www.w3.org/2000/svg"
   xmlns="http://www.w3.org/2000/svg"
   xmlns:sodipodi="http://sodipodi.sourceforge.net/DTD/sodipodi-0.dtd"
   xmlns:inkscape="http://www.inkscape.org/namespaces/inkscape"
   version="1.1"
   width="34"
   height="32"
   viewBox="0 0 34 32"
   id="svg3016"
   inkscape:version="0.48.5 r10040"
   sodipodi:docname="vcard-alt.svg">
  <metadata
     id="metadata3027">
    <rdf:RDF>
      <cc:Work
         rdf:about="">
        <dc:format>image/svg+xml</dc:format>
        <dc:type
           rdf:resource="http://purl.org/dc/dcmitype/StillImage" />
        <dc:title></dc:title>
      </cc:Work>
    </rdf:RDF>
  </metadata>
  <defs
     id="defs3025" />
  <sodipodi:namedview
     pagecolor="#ffffff"
     bordercolor="#666666"
     borderopacity="1"
     objecttolerance="10"
     gridtolerance="10"
     guidetolerance="10"
     inkscape:pageopacity="0"
     inkscape:pageshadow="2"
     inkscape:window-width="1920"
     inkscape:window-height="1018"
     id="namedview3023"
     showgrid="false"
     showguides="true"
     inkscape:guide-bbox="true"
     inkscape:zoom="8.0044488"
     inkscape:cx="49.703453"
     inkscape:cy="18.305085"
     inkscape:window-x="1912"
     inkscape:window-y="-8"
     inkscape:window-maximized="1"
     inkscape:current-layer="layer3" />
  <g
     inkscape:groupmode="layer"
     id="layer3"
     inkscape:label="Layer#2" />
  <g
     transform="matrix(0.49266032,0,0,0.49266032,85.698857,-8.2680134)"
     id="icomoon-ignore-7">
    <line
       id="line3055"
       opacity=""
       y2="0"
       x2="0"
       y1="0"
       x1="0"
       style="stroke:#449fdb;stroke-width:1" />
  </g>
  <g
     id="g3909">
    <g
       style="fill-rule:nonzero"
       id="g3112">
      <g
         style="fill-rule:nonzero"
         id="icomoon-ignore">
        <line
           style="fill-rule:nonzero"
           stroke-width="1"
           x1=""
           y1=""
           x2=""
           y2=""
           stroke="#449FDB"
           opacity=""
           id="line3019" />
      </g>
      <path
         style="fill:#000000;fill-rule:nonzero"
         d="M 2.84375 2.28125 C 2.05775 2.28125 1.4030833 2.5656667 0.84375 3.125 C 0.28441667 3.6843333 0 4.37025 0 5.15625 L 0 26.84375 C 0 27.62975 0.28441667 28.315667 0.84375 28.875 C 1.4030833 29.434333 2.05775 29.71875 2.84375 29.71875 L 31.4375 29.71875 C 32.2235 29.71875 32.878167 29.434333 33.4375 28.875 C 33.996833 28.315667 34.28125 27.62975 34.28125 26.84375 L 34.28125 5.15625 C 34.28125 4.37025 33.996833 3.6843333 33.4375 3.125 C 32.878167 2.5656667 32.2235 2.28125 31.4375 2.28125 L 2.84375 2.28125 z M 11.375 7.21875 C 12.255301 7.21875 13.002061 7.5462663 13.625 8.1875 C 14.247939 8.8287336 14.5625 9.5938462 14.5625 10.5 C 14.5625 11.406153 14.247939 12.202517 13.625 12.84375 C 13.002061 13.484984 12.255301 13.78125 11.375 13.78125 C 10.4947 13.78125 9.7479402 13.484984 9.125 12.84375 C 8.5020613 12.202517 8.1875 11.406153 8.1875 10.5 C 8.1875 9.5938462 8.5020613 8.8287336 9.125 8.1875 C 9.7479402 7.5462663 10.4947 7.21875 11.375 7.21875 z M 20.375 7.875 L 28.75 7.875 C 28.902397 7.875 29.044581 7.9199092 29.15625 8.03125 C 29.26792 8.1425912 29.312829 8.2847753 29.3125 8.4375 L 29.3125 9.5625 C 29.3125 9.714896 29.267592 9.85708 29.15625 9.96875 C 29.044909 10.080419 28.902725 10.125329 28.75 10.125 L 20.375 10.125 C 20.222604 10.125 20.08042 10.080091 19.96875 9.96875 C 19.857081 9.857408 19.812172 9.715224 19.8125 9.5625 L 19.8125 8.4375 C 19.8125 8.2851039 19.857408 8.1429199 19.96875 8.03125 C 20.080091 7.9195802 20.222275 7.8746714 20.375 7.875 z M 20.375 12.375 L 28.75 12.375 C 28.902397 12.375 29.044581 12.419908 29.15625 12.53125 C 29.26792 12.642591 29.312829 12.784776 29.3125 12.9375 L 29.3125 14.0625 C 29.3125 14.214896 29.267592 14.35708 29.15625 14.46875 C 29.044909 14.58042 28.902725 14.625328 28.75 14.625 L 20.375 14.625 C 20.222604 14.625 20.08042 14.580092 19.96875 14.46875 C 19.857081 14.357409 19.812172 14.215225 19.8125 14.0625 L 19.8125 12.9375 C 19.8125 12.785104 19.857408 12.642919 19.96875 12.53125 C 20.080091 12.41958 20.222275 12.374671 20.375 12.375 z M 8.40625 13.25 C 8.4561767 13.25 8.5673713 13.314935 8.75 13.4375 C 8.932634 13.560065 9.1452353 13.692777 9.375 13.84375 C 9.6047653 13.994723 9.8816318 14.127435 10.25 14.25 C 10.618368 14.372565 11.004151 14.4375 11.375 14.4375 C 11.745849 14.4375 12.100382 14.372565 12.46875 14.25 C 12.837118 14.127435 13.145235 13.994723 13.375 13.84375 C 13.604765 13.692777 13.817367 13.560065 14 13.4375 C 14.182634 13.314935 14.293829 13.25 14.34375 13.25 C 14.681421 13.25 15.001563 13.292303 15.28125 13.40625 C 15.560937 13.520197 15.774953 13.684129 15.96875 13.875 C 16.162546 14.065869 16.350545 14.291835 16.5 14.5625 C 16.649456 14.833165 16.755069 15.121222 16.84375 15.40625 C 16.932431 15.691278 17.004515 16.010206 17.0625 16.34375 C 17.12048 16.677294 17.167962 16.962419 17.1875 17.25 C 17.207033 17.537581 17.21875 17.853986 17.21875 18.15625 C 17.21875 18.840254 16.998086 19.385147 16.59375 19.78125 C 16.189413 20.177353 15.66976 20.375 15 20.375 L 7.75 20.375 C 7.0799293 20.375 6.5290267 20.177353 6.125 19.78125 C 5.7209713 19.385147 5.53156 18.840254 5.53125 18.15625 C 5.53125 17.854305 5.5429667 17.537901 5.5625 17.25 C 5.5820333 16.962099 5.5982647 16.676975 5.65625 16.34375 C 5.7142367 16.010525 5.786322 15.691597 5.875 15.40625 C 5.963682 15.120903 6.1005447 14.832846 6.25 14.5625 C 6.399456 14.292155 6.5562033 14.066189 6.75 13.875 C 6.943796 13.683811 7.1890633 13.519879 7.46875 13.40625 C 7.7484373 13.292623 8.0685793 13.25032 8.40625 13.25 z M 20.375 16.875 L 28.75 16.875 C 28.902397 16.875 29.044581 16.951158 29.15625 17.0625 C 29.26792 17.173841 29.312829 17.284776 29.3125 17.4375 L 29.3125 18.5625 C 29.3125 18.714896 29.267592 18.85708 29.15625 18.96875 C 29.044909 19.08042 28.902725 19.125328 28.75 19.125 L 20.375 19.125 C 20.222604 19.125 20.08042 19.080092 19.96875 18.96875 C 19.857081 18.857409 19.812172 18.715225 19.8125 18.5625 L 19.8125 17.4375 C 19.8125 17.285104 19.857408 17.174169 19.96875 17.0625 C 20.080091 16.95083 20.222275 16.874671 20.375 16.875 z M 5.15625 22.625 L 29.15625 22.625 C 29.308646 22.625 29.45083 22.701158 29.5625 22.8125 C 29.67417 22.923841 29.719078 23.034775 29.71875 23.1875 L 29.71875 24.3125 C 29.71875 24.464896 29.673842 24.60708 29.5625 24.71875 C 29.451159 24.83042 29.308975 24.875328 29.15625 24.875 L 5.15625 24.875 C 5.003854 24.875 4.89292 24.830092 4.78125 24.71875 C 4.669581 24.607409 4.593422 24.465225 4.59375 24.3125 L 4.59375 23.1875 C 4.59375 23.035104 4.669908 22.92417 4.78125 22.8125 C 4.892591 22.70083 5.003525 22.624671 5.15625 22.625 z "
         id="path3021" />
    </g>
    <g
       transform="translate(-6.0169153,0.03706779)"
       id="icomoon-ignore-1">
      <line
         id="line3037"
         opacity=""
         y2="0"
         x2="0"
         y1="0"
         x1="0"
         style="stroke:#449fdb;stroke-width:1" />
    </g>
  </g>
  <g
     inkscape:groupmode="layer"
     id="layer1"
     inkscape:label="Layer" />
  <g
     inkscape:groupmode="layer"
     id="layer2"
     inkscape:label="Layer#1" />
</svg>
